# xmcd
#
# Track frame offsets: 
#        150
#        96825
#        116259
#
# Disc length: 2949 seconds
#
# Revision: 2
# Processed by: cddbd v1.5.2PL0 Copyright (c) Steve Scherf et al.
# Submitted via: ExactAudioCopy v0.99pb5
#
DISCID=1a0b8303
DTITLE=John Coltrane - Offering: Live at Temple University(CD2)
DYEAR=2014
DGENRE=Jazz
TTITLE0=Leo
TTITLE1=Offering
TTITLE2=My Favorite Things
EXTD=YEAR: 1966
EXTT0=
EXTT1=
EXTT2=
PLAYORDER=
